<?xml version="1.0" encoding="UTF-8"?>
<svg version="1.1" xmlns="http://www.w3.org/2000/svg" width="890" height="890">
<path d="M0 0 C293.7 0 587.4 0 890 0 C890 293.7 890 587.4 890 890 C596.3 890 302.6 890 0 890 C0 596.3 0 302.6 0 0 Z " fill="#FEFEFE" transform="translate(0,0)"/>
<path d="M0 0 C0.9381958 0.00220551 1.8763916 0.00441101 2.84301758 0.00668335 C59.11329095 0.27151404 113.12653493 17.00537797 154.5 56.375 C155.21929688 57.02984375 155.93859375 57.6846875 156.6796875 58.359375 C176.43397299 76.92364329 188.98993987 106.08336759 197.5 131.375 C197.77553711 132.1882373 198.05107422 133.00147461 198.33496094 133.83935547 C207.67232029 161.82540966 211.63879803 189.98980143 214.13989258 219.24511719 C214.42090192 222.52981033 214.75206419 225.8069686 215.09375 229.0859375 C215.71876172 236.00291104 215.69560106 242.93498829 215.6875 249.875 C215.68789276 250.60129608 215.68828552 251.32759216 215.68869019 252.07589722 C215.68204635 262.45285502 215.2210509 272.68713541 214.28198242 283.02587891 C213.08188912 297.39538936 213.08341951 311.82891198 212.92993164 326.24047852 C212.90123162 328.27229856 212.87250554 330.30411824 212.84375 332.3359375 C212.83594765 333.74357109 212.83594765 333.74357109 212.82798767 335.17964172 C212.74391734 340.62952668 212.61502283 345.03734319 208.79296875 349.26171875 C208.09816406 349.85597656 207.40335938 350.45023437 206.6875 351.0625 C205.88441406 351.74957031 205.08132813 352.43664062 204.25390625 353.14453125 C200.70973381 356.01505957 197.08259406 358.77049916 193.44458008 361.52001953 C188.78189135 365.07687064 184.47963822 368.94913991 180.1796875 372.9375 C175.77662576 376.94261738 171.13402533 380.64258761 166.5 384.375 C164.76967079 385.7902465 163.0405219 387.20693719 161.3125 388.625 C156.13850314 392.85827016 150.95254666 397.07670261 145.76171875 401.28930664 C142.29497593 404.10277083 138.83128707 406.91979056 135.375 409.74609375 C128.1500729 415.64796418 120.86788797 421.44785648 113.453125 427.109375 C109.08053678 430.46400618 104.78192766 433.90575079 100.5 437.375 C99.21029297 438.41914062 99.21029297 438.41914062 97.89453125 439.484375 C92.31870735 444.02227497 86.81203501 448.63516139 81.33447266 453.29052734 C77.94103984 456.17007741 74.51759017 459.00682472 71.0625 461.8125 C66.94236455 465.16568383 62.89680106 468.59301044 58.875 472.0625 C49.16797401 480.42820132 39.28666697 488.59508093 29.25 496.5625 C25.5634778 499.49185771 21.95939446 502.50972602 18.375 505.5625 C12.8905423 510.2320961 7.32611681 514.79433564 1.72631836 519.32470703 C-3.22707899 523.33389803 -8.15006618 527.37826073 -13.0625 531.4375 C-22.93393972 539.58233763 -32.86919289 547.63552244 -43.0625 555.375 C-48.3089791 559.36206709 -53.30070112 563.5956999 -58.27416992 567.91625977 C-62.56226254 571.62185038 -66.96224959 575.10847166 -71.48242188 578.52880859 C-75.73618979 581.75725073 -79.87454002 585.10966872 -84 588.5 C-91.20665361 594.41053754 -98.59409438 600.06353964 -106.03271484 605.67822266 C-111.68242534 609.95240608 -117.1859377 614.32591037 -122.5390625 618.96875 C-124.5 620.375 -124.5 620.375 -127.5 620.375 C-125.97846861 613.18127871 -124.10786318 606.12502651 -122.12109375 599.046875 C-121.79325897 597.87331955 -121.46542419 596.6997641 -121.12765503 595.49064636 C-120.24882225 592.34958972 -119.36744422 589.20926495 -118.48422623 586.06943893 C-117.93387718 584.11211538 -117.38460253 582.15449288 -116.83554077 580.19680786 C-112.99646584 566.51569669 -109.15574678 552.8441126 -104.8125 539.3125 C-98.55321626 519.77498281 -93.49501931 499.87231268 -88.21411133 480.0536499 C-87.38032701 476.92610355 -86.54370303 473.79932371 -85.70652771 470.67268372 C-82.9592219 460.41162707 -80.23113498 450.14554583 -77.51953125 439.875 C-73.0502376 422.98018285 -68.34998965 406.16414489 -63.5 389.375 C-62.10080152 384.52179503 -60.70581315 379.66739741 -59.3125 374.8125 C-58.97621582 373.6479126 -58.63993164 372.4833252 -58.29345703 371.28344727 C-56.56376383 365.25610532 -54.94554661 359.22263059 -53.47387695 353.12744141 C-49.60661129 337.37144752 -42.0311639 330.85401903 -29.5 321.375 C6.18066292 294.21165662 34.45085335 259.86205519 41.81469727 214.43359375 C42.76449295 207.19256049 42.68387628 199.91593266 42.6875 192.625 C42.69974609 191.34367188 42.71199219 190.06234375 42.72460938 188.7421875 C42.91702175 176.38390674 42.91702175 176.38390674 40.5 164.375 C37.58999491 161.65039932 34.70481323 159.77817155 31.0625 158.1875 C29.98162109 157.70216797 29.98162109 157.70216797 28.87890625 157.20703125 C4.09813519 148.53986502 -32.21999831 154.6020695 -57.375 159.125 C-58.34774872 159.2991745 -59.32049744 159.473349 -60.32272339 159.65280151 C-70.00967215 161.42351193 -79.453143 163.5434903 -88.88525391 166.39160156 C-93.21363942 167.56914694 -97.56377599 168.41510618 -101.96875 169.25 C-113.14030969 171.39200216 -124.0507078 174.30971705 -135 177.375 C-136.52170807 177.79868362 -136.52170807 177.79868362 -138.07415771 178.23092651 C-167.65612335 186.48987293 -196.33769196 196.09744427 -224.5 208.375 C-225.6044043 208.85356445 -226.70880859 209.33212891 -227.84667969 209.82519531 C-234.14911322 212.55979158 -240.43383987 215.33183669 -246.70703125 218.1328125 C-249.25793778 219.26734156 -251.81485169 220.38652528 -254.375 221.5 C-274.01899212 230.1038194 -293.5823108 239.56623157 -312.11791992 250.36425781 C-316.81067027 253.07094263 -321.64220377 255.36302698 -326.5625 257.625 C-343.3929828 265.40916322 -359.24157324 274.87220805 -374.5 285.375 C-376.55401388 286.76264485 -378.61583238 288.13885176 -380.6875 289.5 C-381.52667969 290.05945313 -382.36585938 290.61890625 -383.23046875 291.1953125 C-385.5 292.375 -385.5 292.375 -389.5 292.375 C-386.11286462 284.42825931 -378.20042034 277.72798555 -371.6953125 272.25 C-368.8987262 269.86145654 -366.20174181 267.36933452 -363.5 264.875 C-358.8926083 260.63662624 -354.24319529 256.46080506 -349.5 252.375 C-349.02401367 251.9620166 -348.54802734 251.5490332 -348.05761719 251.12353516 C-334.73396582 239.5641471 -321.08705299 228.45994235 -307.0234375 217.8125 C-303.86347192 215.41997446 -300.72693874 213.00002372 -297.6015625 210.5625 C-285.65493882 201.28287007 -273.34618609 192.75453368 -260.69042969 184.47412109 C-257.38697326 182.30063484 -254.10082802 180.10238849 -250.8203125 177.89453125 C-237.04952618 168.6341054 -223.14515044 159.63278716 -209.01416016 150.92724609 C-206.76771193 149.54028573 -204.52853075 148.14269382 -202.29296875 146.73828125 C-201.13286131 146.01294276 -199.97271016 145.28767417 -198.8125 144.5625 C-197.41451172 143.68658203 -197.41451172 143.68658203 -195.98828125 142.79296875 C-191.51528383 140.2439922 -188.02923639 139.12393437 -182.85864258 139.1796875 C-181.75011429 139.18629395 -180.641586 139.19290039 -179.49946594 139.19970703 C-178.30983749 139.21630371 -177.12020905 139.23290039 -175.89453125 139.25 C-174.04295662 139.26135986 -174.04295662 139.26135986 -172.15397644 139.27294922 C-168.20669714 139.29737254 -164.2596338 139.33412696 -160.3125 139.375 C-155.13151684 139.42839581 -149.950688 139.46833505 -144.76953125 139.5 C-143.00027031 139.52489502 -143.00027031 139.52489502 -141.19526672 139.55029297 C-124.93260883 139.64585412 -109.09879392 134.94268954 -96.7734375 123.81640625 C-95.67180332 122.67933939 -94.58397747 121.5289115 -93.5 120.375 C-92.84 120.375 -92.18 120.375 -91.5 120.375 C-91.24734375 119.79621094 -90.9946875 119.21742188 -90.734375 118.62109375 C-89.35194097 116.10558879 -87.77013787 114.47662413 -85.75 112.4375 C-77.47937122 103.41742914 -59.5 83.08047191 -59.5 70.375 C-65.63086336 70.90752907 -71.07757383 71.92534943 -76.91015625 73.8515625 C-77.68072861 74.09989838 -78.45130096 74.34823425 -79.245224 74.60409546 C-80.86758253 75.12943919 -82.4885514 75.6590924 -84.1081543 76.19287109 C-86.52850935 76.98882194 -88.95408169 77.76685382 -91.38085938 78.54296875 C-105.6866291 83.17363855 -119.2432409 88.81482281 -132.375 96.1875 C-133.29555176 96.69450439 -134.21610352 97.20150879 -135.16455078 97.72387695 C-139.67845053 100.2155776 -144.16415442 102.75051729 -148.625 105.3359375 C-149.42824707 105.79637451 -150.23149414 106.25681152 -151.05908203 106.73120117 C-152.55144088 107.58907939 -154.03740213 108.45823351 -155.51513672 109.34106445 C-160.24890747 112.0581378 -164.04456092 113.01496543 -169.5 113.375 C-168.85356843 108.52765523 -166.86330416 104.55957902 -164.74609375 100.21484375 C-164.36695328 99.42912491 -163.98781281 98.64340607 -163.59718323 97.83387756 C-162.79227354 96.17077644 -161.98433458 94.5091385 -161.17358398 92.84887695 C-159.95589584 90.35024725 -158.75378578 87.8445509 -157.55273438 85.33789062 C-151.20669617 72.215411 -143.91996492 60.56008263 -134.5 49.375 C-133.83613281 48.56417969 -133.17226563 47.75335938 -132.48828125 46.91796875 C-109.04586376 19.40237705 -71.26706538 7.04950832 -36.5 2.375 C-35.38383301 2.20726074 -34.26766602 2.03952148 -33.11767578 1.86669922 C-22.06345613 0.30978647 -11.15504045 -0.03011058 0 0 Z " fill="#0D0D0D" transform="translate(467.5,17.625)"/>
<path d="M0 0 C0.66 0.33 1.32 0.66 2 1 C1.690625 2.26199219 1.38125 3.52398437 1.0625 4.82421875 C0.10124222 9.14903851 -0.3632368 13.38954298 -0.7331543 17.79833984 C-3.32327926 47.05514025 -11.36369645 76.36659699 -19.90332031 104.39208984 C-20.91257957 107.71240003 -21.90307487 111.03757527 -22.88821411 114.36508179 C-32.5997865 147.12490716 -43.50550951 179.39681391 -58.25 210.28515625 C-59.52424993 212.96180512 -60.74333279 215.6577719 -61.9375 218.37109375 C-72.01383699 241.25637379 -83.38564663 263.41280186 -96 285 C-96.64791504 286.11358887 -97.29583008 287.22717773 -97.96337891 288.37451172 C-105.24717214 300.88191887 -112.54600765 313.36648197 -120.79931641 325.26660156 C-122.10939947 327.15793742 -123.40494363 329.05875222 -124.69921875 330.9609375 C-133.76576339 344.25938226 -143.07100448 357.33027348 -153 370 C-153.66644531 370.85078125 -154.33289063 371.7015625 -155.01953125 372.578125 C-159.19215977 377.84702456 -163.50224331 382.98992226 -167.85864258 388.10668945 C-170.82734916 391.59732127 -173.7420269 395.1252924 -176.625 398.6875 C-180.20400123 403.08801575 -183.947923 407.29832521 -187.76953125 411.48828125 C-189.99519351 413.99458744 -192.09521561 416.56924393 -194.1875 419.1875 C-202.43425167 429.35945154 -211.62332611 438.72270742 -220.93481445 447.91577148 C-224.28873993 451.24119173 -227.45834959 454.66929014 -230.5 458.28125 C-231.2425 459.13203125 -231.2425 459.13203125 -232 460 C-232.58705593 460.68552822 -233.17411186 461.37105644 -233.77895737 462.07735825 C-236.44673446 464.38671492 -237.56084358 464.49556132 -241.03668213 464.48101807 C-242.05187927 464.48651672 -243.06707642 464.49201538 -244.11303711 464.49768066 C-245.77459839 464.47610901 -245.77459839 464.47610901 -247.46972656 464.45410156 C-248.64073914 464.45468567 -249.81175171 464.45526978 -251.01824951 464.45587158 C-254.89267517 464.45308268 -258.76633357 464.42195075 -262.640625 464.390625 C-265.32533337 464.38094485 -268.0100409 464.37727446 -270.69476318 464.37347412 C-277.04130373 464.36104512 -283.38756845 464.32822484 -289.73398757 464.28807616 C-296.96002233 464.24335585 -304.18607032 464.22137081 -311.41220903 464.20129442 C-326.27495519 464.15949192 -341.13745938 464.08914158 -356 464 C-359.23641404 443.53244802 -362.43730322 423.10487228 -364.6875 402.5 C-364.85283737 400.98626801 -364.85283737 400.98626801 -365.02151489 399.44195557 C-366.50480824 385.57744767 -367.47584996 371.8216627 -367.4375 357.875 C-367.43744965 357.15094971 -367.43739929 356.42689941 -367.43734741 355.6809082 C-367.41153561 347.76589685 -366.85193586 340.11698429 -365.51049805 332.30908203 C-364.9470654 328.65687442 -364.61766016 325.02727839 -364.32421875 321.34375 C-364.21787109 320.0546875 -364.11152344 318.765625 -364.00195312 317.4375 C-363.84342187 315.45241302 -363.68525271 313.46721417 -363.54907227 311.48046875 C-363.41155829 309.51666426 -363.24326584 307.5550917 -363.07421875 305.59375 C-362.98744873 304.44583984 -362.90067871 303.29792969 -362.8112793 302.11523438 C-361.7852841 298.17551162 -360.04537422 296.62877782 -357 294 C-356.17242187 293.22140625 -355.34484375 292.4428125 -354.4921875 291.640625 C-349.02260282 286.64452676 -343.44231999 281.86005643 -337.67578125 277.2109375 C-335.08151565 275.06735453 -332.60022402 272.84178545 -330.125 270.5625 C-325.89031443 266.70363438 -321.44634951 263.18873335 -316.88720703 259.72851562 C-310.39053897 254.7964602 -304.08499994 249.64137226 -297.8828125 244.34375 C-291.99397308 239.31458868 -286.04312353 234.44343161 -279.87109375 229.76538086 C-275.46036535 226.40246489 -271.23192446 222.85758058 -267.02001953 219.25048828 C-262.87035263 215.70766509 -258.64384572 212.27303786 -254.375 208.875 C-253.73908936 208.36855957 -253.10317871 207.86211914 -252.44799805 207.34033203 C-251.20610302 206.3515018 -249.96416105 205.36273051 -248.72216797 204.37402344 C-238.44936613 196.17791786 -228.49619245 187.61919087 -218.55859375 179.0234375 C-207.37829498 169.37141537 -195.90335324 160.09798348 -184.35546875 150.890625 C-180.77983552 148.02063083 -177.24011464 145.1071414 -173.6953125 142.19921875 C-171.26866242 140.21921296 -168.82666733 138.26136776 -166.375 136.3125 C-156.43027051 128.37250169 -146.60111975 120.2898749 -137 111.9375 C-131.22183748 106.92339202 -125.2131292 102.26188289 -119.11206055 97.64868164 C-114.22268161 93.95004107 -109.44621582 90.14450149 -104.7265625 86.23046875 C-102.1680386 84.13746424 -99.57643591 82.09831409 -96.96655273 80.0703125 C-86.3359281 71.80739801 -76.18251098 63.03687586 -66.20703125 53.99609375 C-63.61606958 51.65276381 -60.9975631 49.34463477 -58.359375 47.0546875 C-56.48605025 45.42328217 -54.62404669 43.78106825 -52.765625 42.1328125 C-44.19567278 34.57115805 -35.33659639 27.51973113 -26.20117188 20.65576172 C-22.41390853 17.806913 -18.64402901 14.93540202 -14.875 12.0625 C-13.84560303 11.28326172 -13.84560303 11.28326172 -12.79541016 10.48828125 C-8.39335327 7.1368011 -4.17138344 3.63506271 0 0 Z " fill="#0A0A0A" transform="translate(673,426)"/>
<path d="M0 0 C0.64939521 7.1433473 -0.97370308 12.8389804 -3.08300781 19.57275391 C-4.34795988 23.65315836 -5.3643951 27.56549103 -5.9375 31.8125 C-6.84797136 38.06667239 -8.688521 43.93849419 -10.54882812 49.96118164 C-12.47128418 56.19360437 -14.24836992 62.45050516 -15.9375 68.75 C-17.9783617 76.34609528 -20.13520474 83.89781905 -22.375 91.4375 C-24.98160232 100.24385824 -27.32250303 109.09395971 -29.5625 118 C-33.0985091 131.98935848 -37.06957492 145.84055367 -41.125 159.6875 C-41.42068878 160.6973999 -41.71637756 161.7072998 -42.02102661 162.74780273 C-45.04764529 173.07125744 -48.11079008 183.38317097 -51.21484375 193.68359375 C-53.38508107 200.88918184 -55.45513484 208.11524052 -57.4375 215.375 C-59.56786261 223.06961082 -61.79791684 230.7142305 -64.25 238.3125 C-74.5460716 270.24102225 -83.90640977 302.31253736 -91.56738281 334.98608398 C-93.20219004 341.91688049 -95.0273018 348.76418474 -97.01367188 355.60253906 C-97.93431618 358.7737485 -98.82890493 361.9506786 -99.7109375 365.1328125 C-102.69772329 375.88824493 -105.70861131 386.62688521 -109.04638672 397.27978516 C-110.27190393 401.26077013 -111.25106503 405.17276019 -111.99609375 409.2734375 C-112.69598019 412.92989325 -113.52097615 415.6375722 -115.75 418.6875 C-116.28367188 419.42097656 -116.81734375 420.15445312 -117.3671875 420.91015625 C-117.90601563 421.59980469 -118.44484375 422.28945313 -119 423 C-119.47695312 423.61746094 -119.95390625 424.23492188 -120.4453125 424.87109375 C-122.90953861 427.8941471 -125.51320685 430.49617765 -128.5 433 C-134.54382486 438.14759228 -139.76163962 444.13132771 -145.12695312 449.96533203 C-148.19743114 453.30075484 -151.28475048 456.62040102 -154.375 459.9375 C-154.96385986 460.57075195 -155.55271973 461.20400391 -156.15942383 461.85644531 C-159.1471558 465.05840484 -162.17181669 468.19638513 -165.3125 471.25 C-169.25523153 475.11609096 -172.67222157 479.37047924 -176.1171875 483.6796875 C-179.58167264 487.94919824 -179.58167264 487.94919824 -182.02647591 488.24609566 C-182.86530752 488.24425207 -183.70413914 488.24240849 -184.56838989 488.24050903 C-185.53035278 488.24325836 -186.49231567 488.24600769 -187.48342896 488.24884033 C-188.5422226 488.24164978 -189.60101624 488.23445923 -190.69189453 488.22705078 C-191.80409363 488.22734283 -192.91629272 488.22763489 -194.06219482 488.22793579 C-197.75247904 488.22653818 -201.44256339 488.21095662 -205.1328125 488.1953125 C-207.6858611 488.1915839 -210.23891113 488.18873621 -212.79196167 488.18673706 C-218.83389939 488.17987103 -224.87575082 488.16409495 -230.91765392 488.14403808 C-237.7954311 488.12170092 -244.67321168 488.11069116 -251.55101609 488.10064721 C-265.7007174 488.07972928 -279.85035475 488.04453969 -294 488 C-293.52594733 486.25962863 -293.05173373 484.5193011 -292.57745361 482.7789917 C-292.31339344 481.80984203 -292.04933327 480.84069237 -291.77727127 479.84217453 C-290.71513121 475.95834716 -289.63441882 472.07990363 -288.546875 468.203125 C-288.21551292 467.02151794 -288.21551292 467.02151794 -287.87745667 465.81604004 C-283.61885874 450.64707638 -279.32969615 435.49750233 -274.671875 420.4453125 C-273.09283406 415.33698316 -271.58213264 410.20976984 -270.07666016 405.0793457 C-264.79319438 387.08325585 -259.2824167 369.16053766 -252.98486328 351.49023438 C-250.9577405 345.78985403 -249.00995415 340.06647792 -247.09375 334.328125 C-240.46450011 314.52496292 -233.37436541 295.14521058 -225 276 C-224.46333376 274.76727226 -223.92671342 273.53452453 -223.39013672 272.30175781 C-213.08340723 248.67837068 -201.84191005 225.90835658 -188.63964844 203.7578125 C-186.6805042 200.46262291 -184.74922231 197.15172922 -182.81933594 193.83935547 C-170.0069866 171.90306039 -155.14914507 151.41319175 -138.64453125 132.10546875 C-133.58088881 126.17814638 -128.69803854 120.1007248 -123.796875 114.0390625 C-112.06604631 99.53941446 -112.06604631 99.53941446 -107 94 C-106.3196167 93.25411621 -106.3196167 93.25411621 -105.62548828 92.49316406 C-98.61976429 84.83579584 -91.45046056 77.35208979 -84.125 70 C-83.09173584 68.95984741 -83.09173584 68.95984741 -82.03759766 67.89868164 C-78.11300535 63.98589049 -74.07127328 60.28494422 -69.87548828 56.66601562 C-67.06138999 54.16622303 -64.4826508 51.4612326 -61.875 48.75 C-56.98032152 43.75899505 -51.86498065 39.33838885 -46.31103516 35.10131836 C-41.99685114 31.80853685 -37.84928098 28.36889267 -33.75 24.8125 C-29.80953693 21.39587587 -25.84872259 18.04024404 -21.75 14.8125 C-17.36510919 11.35532163 -13.23462657 7.665611 -9.12890625 3.8828125 C-5.80053175 0.93918588 -4.56939525 0 0 0 Z " fill="#040405" transform="translate(359,402)"/>
<path d="M0 0 C0.66 0.33 1.32 0.66 2 1 C1.01 1.8971875 1.01 1.8971875 0 2.8125 C-2.3373846 4.87501834 -2.3373846 4.87501834 -2 8 C-2.1875 10 -2.1875 10 -3 12 C-6.34811134 14.53370588 -7.70124217 15 -12 15 C-10.38462556 11.10082032 -7.72075127 8.28706228 -4.875 5.25 C-4.40707031 4.74339844 -3.93914062 4.23679687 -3.45703125 3.71484375 C-2.30873459 2.47280859 -1.15491328 1.23588506 0 0 Z " fill="#272627" transform="translate(90,295)"/>
<path d="M0 0 C0 3 0 3 -2 6 C-1.34 6.33 -0.68 6.66 0 7 C-1.98 7.99 -3.96 8.98 -6 10 C-5.835 9.401875 -5.67 8.80375 -5.5 8.1875 C-4.8885876 5.88655664 -4.8885876 5.88655664 -5 3 C-4.360625 2.690625 -3.72125 2.38125 -3.0625 2.0625 C-1.06389179 1.1654837 -1.06389179 1.1654837 0 0 Z " fill="#151414" transform="translate(93,296)"/>
<path d="M0 0 C0.99 0 1.98 0 3 0 C2.42655063 2.86724686 2.1385485 3.8614515 0 6 C-0.99 6 -1.98 6 -3 6 C-2.67 4.68 -2.34 3.36 -2 2 C-1.34 2 -0.68 2 0 2 C0 1.34 0 0.68 0 0 Z " fill="#1D1A1C" transform="translate(343,632)"/>
<path d="M0 0 C0.99 0.33 1.98 0.66 3 1 C3 1.66 3 2.32 3 3 C1.02 3.99 -0.96 4.98 -3 6 C-1.125 1.125 -1.125 1.125 0 0 Z " fill="#1F1D20" transform="translate(84,304)"/>
</svg>
